<?xml version="1.0" encoding="utf-8"?>
<!-- Generator: Adobe Illustrator 20.1.0, SVG Export Plug-In . SVG Version: 6.00 Build 0)  -->
<svg version="1.1" id="Layer_1" xmlns="http://www.w3.org/2000/svg" xmlns:xlink="http://www.w3.org/1999/xlink" x="0px" y="0px"
	 viewBox="0 0 1200 400" style="enable-background:new 0 0 1200 400;" xml:space="preserve">
<style type="text/css">
	.st0{fill:#FF6B6B;}
</style>
<g>
	<path class="st0" d="M221.1,312.7l0.2-140.7l-40,87.1h-31.4l-41.8-86.8l-0.3,140.4H55.4V69.3h53.2l56.7,117l56-117h52v243.4H221.1z
		"/>
	<path class="st0" d="M303.2,142.4c25.8-5.6,45-8.2,63.7-8.2c37.5,0,76.1,14.9,76.1,63.2V311h-47.6l-2.5-14.3
		c-13.7,8-30.7,16.7-49.7,16.7c-30.4,0-54.6-18.2-55-51.5v-4.7c0.7-41,36.7-56.4,68.3-56.4c10.8,0,25.5,1.6,34,3.3l0-4.7
		c0-20.5-19.4-25.6-31.5-25.6c-12.8,0-27.2,1.6-49.6,6.3L303.2,142.4z M390.5,229.4c-5-0.9-14.6-1.8-23.7-1.8
		c-14.3,0-29.4,8.5-29.4,25.1v9.3c0,12.1,8.6,19.6,20.2,19.7c12,0,26.6-7.5,32.9-11.3V229.4z"/>
	<path class="st0" d="M566.4,137.2h55l-61.1,81.9l78.3,115.6h-54.7l-69.7-97.3V311h-52.5V67.6h52.5v138.8L566.4,137.2z"/>
	<path class="st0" d="M611.2,197c0-46.2,43.4-62.8,77-62.8c36.1,0,77.3,16.5,77.3,62.8v40.7H660.4V254c0,18,17.2,23.1,28.1,23.1
		c8.4,0,44.1-2.9,67.2-5.7l5.6,34.2c-19.6,3.9-46.7,7.9-68.2,7.9c-39.2,0-81.9-14.2-81.9-62.8V197z M716.4,193.8
		c0-18.3-16.9-23.1-28.1-23.1c-11.3,0-27.9,5.4-27.9,23.1v12.7h56V193.8z"/>
	<path class="st0" d="M907,65.4c32.5,0.3,47,3.2,61.9,11.6l-3.2,14.7c-16.4-9.9-30.2-11.9-68.4-11.9c-40.6,0-68.5,27.9-74.9,63.9
		l-16.4,92.9c-0.8,4.8-1.3,9.4-1.3,13.9c0,28.3,17.4,48,52.1,48.5h10c26.3,0,39.4-2.9,53.1-9.9l17.1-94.5H884l2.4-13.6h68.5
		l-20.3,117.8c-20.1,11.2-35.4,14.6-68.6,14.6h-10.9c-44-0.3-67.1-25.6-67.1-61.7c0-5.3,0.5-10.9,1.5-16.6l16.3-92.3
		c8-45.4,42.3-77.5,92.1-77.5L907,65.4z"/>
	<path class="st0" d="M1080,65.4c36.3,0,64.6,29.1,64.6,66.1c0,4.1-0.4,8.3-1.1,12.6l-15.7,92.2c-7.5,44-48,77.1-89.2,77.1H1026
		c-38.8,0-64.7-27.3-64.7-64.1c0-4.6,0.4-9.3,1.2-14.2l15.7-92.3c7.3-42.7,46.3-77.5,89.1-77.5H1080z M1066.1,79.9
		c-33.8,0-65.8,29.4-71.6,63.5l-15.8,92.9c-0.7,4-1,8-1,11.8c0,29.9,20.8,51,50.7,51h11.6c31.8,0,65.5-27.1,71.6-63.2l15.8-92.9
		c0.6-3.5,0.9-6.9,0.9-10.3c0-29.5-22.1-52.7-50.6-52.8H1066.1z"/>
</g>
</svg>
